<svg width="34" height="34" viewBox="0 0 34 34" fill="none" xmlns="http://www.w3.org/2000/svg">
<g clip-path="url(#clip0_205_110)">
<path d="M33.4664 1.49765C33.5419 1.30907 33.5604 1.10249 33.5195 0.903508C33.4787 0.704528 33.3804 0.521903 33.2368 0.378273C33.0932 0.234644 32.9105 0.136326 32.7115 0.0955084C32.5126 0.0546909 32.306 0.0731691 32.1174 0.148652L1.92687 12.2253H1.92479L0.986721 12.5989C0.809049 12.6697 0.654423 12.7883 0.539925 12.9416C0.425426 13.0948 0.355511 13.2767 0.337903 13.4672C0.320294 13.6576 0.355677 13.8493 0.440143 14.0209C0.524609 14.1925 0.654871 14.3375 0.81654 14.4397L1.66745 14.9793L1.66952 14.9835L12.036 21.579L18.6316 31.9455L18.6357 31.9497L19.1753 32.8006C19.2779 32.9616 19.4229 33.0913 19.5944 33.1752C19.7659 33.2591 19.9573 33.2941 20.1474 33.2763C20.3375 33.2585 20.519 33.1886 20.6719 33.0743C20.8248 32.9599 20.9433 32.8056 21.0141 32.6283L33.4664 1.49765ZM29.6622 5.42011L14.1093 20.973L13.6631 20.2715C13.5814 20.1428 13.4723 20.0337 13.3435 19.9519L12.642 19.5057L28.1949 3.95282L30.6397 2.97532L29.6643 5.42011H29.6622Z" fill="#B17CEE"/>
</g>
<defs>
<clipPath id="clip0_205_110">
<rect width="33.2061" height="33.2061" fill="white" transform="translate(0.335449 0.0738525)"/>
</clipPath>
</defs>
</svg>
