<svg width="30" height="30" viewBox="0 0 30 30" fill="none" xmlns="http://www.w3.org/2000/svg">
<rect width="30" height="30" fill="white" fill-opacity="0.01" style="mix-blend-mode:multiply"/>
<path d="M21.5625 13.125V15.9375C21.5625 17.678 20.8711 19.3472 19.6404 20.5779C18.4097 21.8086 16.7405 22.5 15 22.5C13.2595 22.5 11.5903 21.8086 10.3596 20.5779C9.1289 19.3472 8.4375 17.678 8.4375 15.9375V13.125H6.5625V15.9375C6.56348 18.0122 7.32886 20.0139 8.71239 21.56C10.0959 23.1061 12.0006 24.0882 14.0625 24.3188V26.25H10.3125V28.125H19.6875V26.25H15.9375V24.3188C17.9994 24.0882 19.9041 23.1061 21.2876 21.56C22.6711 20.0139 23.4365 18.0122 23.4375 15.9375V13.125H21.5625Z" fill="white"/>
<path d="M15 20.625C16.2432 20.625 17.4355 20.1311 18.3146 19.2521C19.1936 18.373 19.6875 17.1807 19.6875 15.9375V6.5625C19.6875 5.3193 19.1936 4.12701 18.3146 3.24794C17.4355 2.36886 16.2432 1.875 15 1.875C13.7568 1.875 12.5645 2.36886 11.6854 3.24794C10.8064 4.12701 10.3125 5.3193 10.3125 6.5625V15.9375C10.3125 17.1807 10.8064 18.373 11.6854 19.2521C12.5645 20.1311 13.7568 20.625 15 20.625Z" fill="white"/>
</svg>
