<svg width="29" height="39" viewBox="0 0 29 39" fill="none" xmlns="http://www.w3.org/2000/svg">
<path d="M14.5938 24.2287C17.9344 24.2287 20.6109 21.5321 20.6109 18.1915L20.631 6.11715C20.631 2.77657 17.9344 0.0799561 14.5938 0.0799561C11.2532 0.0799561 8.5566 2.77657 8.5566 6.11715V18.1915C8.5566 21.5321 11.2532 24.2287 14.5938 24.2287ZM26.8292 18.1915C25.984 18.1915 25.2796 18.7953 25.1589 19.6203C24.4143 24.8727 19.6852 28.4548 14.5938 28.4548C9.50242 28.4548 4.77329 24.8928 4.0287 19.6203C3.96672 19.222 3.76425 18.859 3.4579 18.5969C3.15155 18.3349 2.76155 18.1911 2.35841 18.1915C1.31197 18.1915 0.507007 19.1172 0.647875 20.1436C1.57358 26.1204 6.60457 30.8093 12.5814 31.7148V36.3031C12.5814 37.4099 13.487 38.3155 14.5938 38.3155C15.7006 38.3155 16.6062 37.4099 16.6062 36.3031V31.7148C22.5629 30.8495 27.614 26.1204 28.5397 20.1436C28.5721 19.8999 28.5521 19.6522 28.4809 19.417C28.4098 19.1817 28.2892 18.9644 28.1272 18.7795C27.9652 18.5947 27.7656 18.4466 27.5418 18.3452C27.3179 18.2438 27.0749 18.1914 26.8292 18.1915Z" fill="#B17CEE"/>
</svg>
